<svg xmlns="http://www.w3.org/2000/svg" viewBox="0 0 3223.65 659.54"><g data-name="Layer 2"><g data-name="Layer 1"><path fill="#cafbdc" fill-rule="evenodd" d="M638.6 329.67c-121.91 184-325.37 310.61-559.74 329.87A725.79 725.79 0 0 1 81.58 0c231.28 19.86 432.21 144.28 554 325.1z"/><path fill="#42b67b" fill-rule="evenodd" d="M269.16 327.37 78.69 659.21l-1.33-2.64A725.83 725.83 0 0 1 81.42.31z" opacity=".5" style="isolation:isolate"/><path fill="#82e180" fill-rule="evenodd" d="M638.6 329.67A742.48 742.48 0 0 1 397 558.71L263.74 326.58l130.6-227.53A742.4 742.4 0 0 1 635.56 325.1l3 4.57z" opacity=".31" style="isolation:isolate"/><path fill="#80d9ff" fill-rule="evenodd" d="M638.6 329.67c-121.91 184-325.37 310.61-559.74 329.87A722.07 722.07 0 0 1 1 332.44v-3.39h637.2l.4.62z" opacity=".6" style="isolation:isolate"/><path fill="#a5e695" fill-rule="evenodd" d="m394.85 98.46-129.64 230.1h266.05q-4.1-74.35-38.81-136.24t-97.6-93.86z"/><path fill="#99ebb2" fill-rule="evenodd" d="m131.29 102.17 134.46 227.32 133-230.41q-66.43-33.61-137.39-34.5t-130.07 37.59z"/><path fill="#66d59d" fill-rule="evenodd" d="m136.41 98.46 129.64 230.1H0q4.1-74.35 38.81-136.24t97.6-93.86z"/><path fill="#7cd988" fill-rule="evenodd" d="m394.85 558.24-129.64-230.1h266.05q-4.1 74.36-38.81 136.24t-97.6 93.86z"/><path fill="#76d59f" fill-rule="evenodd" d="m131.29 554.53 134.46-227.32 133 230.41q-66.43 33.61-137.39 34.5t-130.07-37.59z"/><path fill="#4fbe88" fill-rule="evenodd" d="m136.41 558.24 129.64-230.1H0q4.1 74.36 38.81 136.24t97.6 93.86z"/><path fill="#fff" d="M853.86 593.41v-161.2H980q72.61 0 126.48-23.94t82.6-69q28.73-45.08 28.73-105.73 0-61.45-28.73-106.14t-82.6-68.63Q1052.57 34.8 980 34.8H750.12v558.61zm121.3-249h-121.3V122.58h121.3q67.83 0 102.94 28.73t35.12 82.2q0 53.46-35.12 82.19t-102.94 28.73zm474 254.57q43.89 0 80.2-15.16a154.29 154.29 0 0 0 61.05-45.49v55.06h95V167.27h-99.81v51.87a167.4 167.4 0 0 0-60.25-42.29q-34.71-14.37-76.21-14.37-62.25 0-111.33 27.14a193.78 193.78 0 0 0-76.61 76.21q-27.53 49.08-27.53 114.51t27.53 114.92q27.54 49.47 76.61 76.61T1449.14 599zm11.17-85.39q-55.07 0-90.58-36.71t-35.51-96.56q0-59.85 35.51-96.56t90.58-36.71q55.07 0 91 36.71t35.92 96.56q0 59.85-35.91 96.56t-91 36.71zM1806 593.41V378q0-62.25 31.92-95.36t87-33.12q48.68 0 75 28.33t26.37 84.15v231.41H2126V349.22q0-92.57-48.68-139.65t-129.28-47.09q-47.08 0-84.59 15.16t-62.24 44.69v-55.06h-95v426.14zm566.93 5.59q43.89 0 80.2-15.16a154.43 154.43 0 0 0 61-45.49v55.06h95.76V32.52h-99.75v187.42a155.73 155.73 0 0 0-59.86-43.09q-35.1-14.37-77.4-14.37-61.45 0-110.53 27.13t-77 76.62q-27.93 49.47-27.93 114.11t27.93 114.52q27.93 49.88 77 77T2372.93 599zm12-85.39q-35.91 0-64.64-16.36t-45.49-46.68q-16.8-30.33-16.8-70.23t16.76-70.22q16.76-30.33 45.49-46.69t64.64-16.36q35.91 0 64.64 16.36t45.47 46.69q16.77 30.31 16.76 70.22T2495 450.57q-16.76 30.33-45.48 46.68t-64.64 16.36zM2856.82 599q43.89 0 80.2-15.16a154.29 154.29 0 0 0 61.05-45.49v55.06h95V167.27h-99.75v51.87a167.48 167.48 0 0 0-60.32-42.29q-34.73-14.37-76.22-14.37-62.24 0-111.32 27.14a193.66 193.66 0 0 0-76.61 76.21q-27.53 49.08-27.53 114.51t27.53 114.92q27.53 49.47 76.61 76.61T2856.82 599zm11.18-85.39q-55.07 0-90.58-36.71t-35.51-96.56q0-59.85 35.51-96.56t90.58-36.71q55.07 0 91 36.71t35.91 96.56q0 59.85-35.91 96.56t-91 36.71zm304.91-380.77q21.45 0 35.24-14.71t13.79-36.27q0-20.27-14.1-33.66t-34.93-13.4q-20.82 0-34.92 14.05t-14.1 35q0 20.91 14.1 35t34.92 14zm50.74 462.63V169.32h-99.76v426.15z"/></g></g></svg>