<svg xmlns="http://www.w3.org/2000/svg" id="Layer_2" data-name="Layer 2" viewBox="0 0 427.98 427.98"><defs><clipPath id="clippath"><path d="M0 0h71.27v65.09H0z" class="cls-5"/></clipPath><clipPath id="clippath-1"><path d="M0 362.88h71.27v65.09H0z" class="cls-5"/></clipPath><clipPath id="clippath-2"><path d="M356.71 352.43h71.27v75.55h-71.27z" class="cls-5"/></clipPath><clipPath id="clippath-3"><path d="M356.71 0h71.27v65.09h-71.27z" class="cls-5"/></clipPath><clipPath id="clippath-4"><path d="M0 122.93h94.39v190.16H0z" class="cls-5"/></clipPath><clipPath id="clippath-5"><path d="M332.57 110.44h95.41v201.68h-95.41z" class="cls-5"/></clipPath><clipPath id="clippath-6"><path d="M129.99 0h198.74v91.24H129.99z" class="cls-5"/></clipPath><clipPath id="clippath-7"><path d="M71.27 313.09h218.96v114.89H71.27z" class="cls-5"/></clipPath><style>.cls-4{stroke:#8ceb8b;stroke-linecap:round;stroke-linejoin:round}.cls-4,.cls-5{fill:none}</style></defs><g id="Pandai_3.0_Home_" data-name="Pandai 3.0 (Home)"><path d="M0 0h427.98v427.98H0z" style="fill:#f2fff2"/><g style="opacity:.6"><g style="clip-path:url(#clippath)"><path d="M12.77 47.31h0l-.76.21c-.14.03-.28.09-.41.11.82-.2 1.65-.42 2.48-.68l-1.31.35h0Zm53.62-29.65h0ZM12.75 47.27h0l1.3-.32c1.04-.3 2.06-.67 3.08-1.03-1.44.48-2.9.95-4.38 1.36Z" class="cls-4"/><path d="M12.77 47.31h0c-.27.06-.51.12-.76.21l.76-.21ZM7.23 48.8c1.47-.37 2.92-.76 4.37-1.17-.1 0-.17.05-.27.06l-4.1 1.11Z" class="cls-4"/><path d="M11.33 47.69c.1 0 .17-.05.27-.06.14-.03.28-.09.41-.11l-.68.17Zm5.81-1.78c8.06-2.68 15.99-6.09 23.7-10.33a140.71 140.71 0 0 0 25.53-17.93l-19.03-5.06c-4.21 15.93-15.83 27.95-30.2 33.32Z" class="cls-4"/><path d="m47.36 12.6 19.03 5.06h0C63.77 10 60.47 2.45 56.45-4.88a141.63 141.63 0 0 0-19.11-26.86C47.35-19.91 51.65-3.54 47.36 12.6ZM-12.6 47.36c-8.62-2.29-16.12-6.75-21.99-12.65l-16.2 16.26c18.99 3.26 38.77 2.65 58.03-2.19l4.1-1.11a48.657 48.657 0 0 1-23.93-.3Zm-.17-94.67c-16.28 4.42-29.85 17.13-34.56 34.59l-.03.12L0 0l-12.77-47.31Z" class="cls-4"/><path d="M-34.59 34.71 0 0l-47.36-12.6-.06.24c-4.54 17.44.9 35.17 12.84 47.07Z" class="cls-4"/><path d="M-34.59 34.71c5.91 5.88 13.37 10.36 21.99 12.65 8.11 2.16 16.29 2.13 23.93.33l.65-.18c.24-.06.52-.15.76-.21L0 0l-34.59 34.71Zm69.18-69.42-1.03-1.04c-5.72-5.39-12.82-9.44-20.93-11.6-8.62-2.29-17.34-2.15-25.37.05L0 0l34.59-34.71Z" class="cls-4"/><path d="M47.36 12.6c4.29-16.13.02-32.5-10.02-44.34-.91-1.01-1.83-1.99-2.76-2.97h0L0 0l47.36 12.6Z" class="cls-4"/><path d="M47.36 12.6 0 0l12.78 47.28c1.46-.44 2.92-.88 4.39-1.39C31.5 40.54 43.12 28.52 47.36 12.6Z" class="cls-4"/></g><g style="clip-path:url(#clippath-1)"><path d="M34.59 393.27h0l.96.96c-.47-.51-.95-.99-1.46-1.47.15.17.32.34.5.52h0Zm2.75 2.97c-.58-.7-1.17-1.36-1.8-2.01l-.96-.96c.92.98 1.84 1.96 2.76 2.97Zm-3.25-3.49c-1.3-1.37-2.67-2.69-4.02-3.98l3.46 3.44.56.53Z" class="cls-4"/><path d="M34.59 393.27h0c-.18-.17-.32-.34-.5-.52s-.35-.35-.56-.53l1.06 1.05Zm0 0h0Zm12.77 47.31 19.03 5.06h0c-2.62-7.66-5.92-15.21-9.94-22.54a141.63 141.63 0 0 0-19.11-26.86c10.01 11.83 14.31 28.2 10.02 44.34Zm-66.12-82.07 5.99 22.16c8.05-2.17 16.75-2.35 25.37-.05 8.11 2.16 15.2 6.25 20.93 11.6l-3.46-3.44a140.297 140.297 0 0 0-48.83-30.26h0Z" class="cls-4"/><path d="M-12.77 380.67c-16.28 4.42-29.85 17.13-34.56 34.59l-.03.12L0 427.98l-12.77-47.31Z" class="cls-4"/><path d="M-34.59 462.69 0 427.98l-47.36-12.6-.06.24c-4.54 17.44.9 35.17 12.84 47.07Z" class="cls-4"/><path d="M-34.59 462.69c5.91 5.88 13.37 10.36 21.99 12.65 8.11 2.16 16.29 2.13 23.93.33l.65-.18c.24-.06.52-.15.76-.21L0 427.98l-34.59 34.71Zm69.18-69.42-1.03-1.04c-5.72-5.39-12.82-9.44-20.93-11.6-8.62-2.29-17.34-2.15-25.37.05L0 427.98l34.59-34.71Z" class="cls-4"/><path d="M47.36 440.58c4.29-16.13.02-32.5-10.02-44.34-.91-1.01-1.83-1.99-2.76-2.97h0L0 427.98l47.36 12.6Z" class="cls-4"/><path d="M47.36 440.58 0 427.98l12.78 47.28c1.46-.44 2.92-.88 4.39-1.39 14.33-5.35 25.95-17.37 30.19-33.29Z" class="cls-4"/></g><g style="clip-path:url(#clippath-2)"><path d="M409.22 358.51h0Zm-28.6 56.87h0l-.06.24.06-.24Zm.03-.12-.03.12h0l.03-.12Zm28.57-56.75 5.99 22.16c8.05-2.17 16.75-2.35 25.37-.05 8.11 2.16 15.2 6.25 20.93 11.6l-3.46-3.44a140.297 140.297 0 0 0-48.83-30.26h0Z" class="cls-4"/><path d="m415.21 380.67-5.99-22.16a155.023 155.023 0 0 0-28.58 56.78c4.69-17.5 18.25-30.21 34.56-34.62Zm-34.66 34.95a156.424 156.424 0 0 0-3.37 63.32h0l16.2-16.26c-11.94-11.89-17.38-29.63-12.84-47.07Z" class="cls-4"/><path d="M415.21 380.67c-16.28 4.42-29.85 17.13-34.56 34.59l-.03.12 47.36 12.6-12.77-47.31Z" class="cls-4"/><path d="m393.39 462.69 34.59-34.71-47.36-12.6-.06.24c-4.54 17.44.9 35.17 12.84 47.07Z" class="cls-4"/><path d="M393.39 462.69c5.91 5.88 13.37 10.36 21.99 12.65 8.11 2.16 16.29 2.13 23.93.33l.65-.18c.24-.06.52-.15.76-.21l-12.74-47.3-34.59 34.71Zm69.18-69.42-1.03-1.04c-5.72-5.39-12.82-9.44-20.93-11.6-8.62-2.29-17.34-2.15-25.37.05l12.74 47.3 34.59-34.71Z" class="cls-4"/><path d="M475.34 440.58c4.29-16.13.02-32.5-10.02-44.34-.91-1.01-1.83-1.99-2.76-2.97h0l-34.59 34.71 47.36 12.6Z" class="cls-4"/><path d="m475.34 440.58-47.36-12.6 12.78 47.28c1.46-.44 2.92-.88 4.39-1.39 14.33-5.35 25.95-17.37 30.19-33.29Z" class="cls-4"/></g><g style="clip-path:url(#clippath-3)"><path d="M377.19 50.97h0Zm38.19-3.61c-8.62-2.29-16.12-6.75-21.99-12.65l-16.2 16.26c18.99 3.26 38.77 2.65 58.03-2.19l4.1-1.11a48.657 48.657 0 0 1-23.93-.3Zm-34.83-59.72a156.424 156.424 0 0 0-3.37 63.32h0l16.2-16.26C381.44 22.81 376 5.07 380.54-12.37Zm34.66-34.95c-16.28 4.42-29.85 17.13-34.56 34.59l-.03.12L427.98 0l-12.77-47.31Z" class="cls-4"/><path d="M393.39 34.71 427.98 0l-47.36-12.6-.06.24c-4.54 17.44.9 35.17 12.84 47.07Z" class="cls-4"/><path d="M393.39 34.71c5.91 5.88 13.37 10.36 21.99 12.65 8.11 2.16 16.29 2.13 23.93.33l.65-.18c.24-.06.52-.15.76-.21L427.98 0l-34.59 34.71Zm69.18-69.42-1.03-1.04c-5.72-5.39-12.82-9.44-20.93-11.6-8.62-2.29-17.34-2.15-25.37.05L427.98 0l34.59-34.71Z" class="cls-4"/><path d="M475.34 12.6c4.29-16.13.02-32.5-10.02-44.34-.91-1.01-1.83-1.99-2.76-2.97h0L427.98 0l47.36 12.6Z" class="cls-4"/><path d="M475.34 12.6 427.98 0l12.78 47.28c1.46-.44 2.92-.88 4.39-1.39 14.33-5.35 25.95-17.37 30.19-33.29Z" class="cls-4"/></g><g style="clip-path:url(#clippath-4)"><path d="m-83.674 169.332 135.878-17.575 13.76 106.384-135.878 17.575z" class="cls-4"/><rect width="164.04" height="18.64" x="-82.81" y="266.86" class="cls-4" rx="5.58" ry="5.58" transform="rotate(-7.37 -.78 275.994)"/><path d="m26.59 209.31-59.82-30.84 9.81 75.88 50.01-45.04z" class="cls-4"/></g><g style="clip-path:url(#clippath-5)"><path d="m344.31 169.302 135.879-17.575 13.76 106.384-135.878 17.575z" class="cls-4"/><rect width="164.04" height="18.64" x="345.17" y="266.86" class="cls-4" rx="5.58" ry="5.58" transform="rotate(-7.37 426.966 276.024)"/><path d="m454.57 209.31-59.82-30.84 9.81 75.88 50.01-45.04z" class="cls-4"/></g><g style="clip-path:url(#clippath-6)"><path d="m118.263-35.31 23.499-33.573L293.881 37.592l-23.5 33.573zm11.727-16.8L282.11 54.35" class="cls-4"/><path d="m270.37 71.14 39.72 2.79-16.23-36.36-23.49 33.57z" class="cls-4"/></g><g style="clip-path:url(#clippath-7)"><path d="m118.238 392.682 23.5-33.573 152.118 106.475-23.5 33.573zm11.752-16.812 152.12 106.46m-175.769-97.974 23.5-33.573 11.887 8.32-23.5 33.574z" class="cls-4"/><path d="m85.63 354.901 9.445-13.493c3.877-5.538 11.528-6.896 17.075-3.014l17.704 12.392-23.5 33.573-17.704-12.392c-5.538-3.876-6.896-11.528-3.013-17.074Z" class="cls-4"/></g><path d="M129.86 291.14c2.41 1.09 4.86 2.06 7.36 2.86 6.59 2.12 16.37 3.98 25.71.75 4.51-1.57 9.36-5.27 9.3-9.7-.05-2.52-1.72-5.32-4.63-7.62-1.76-1.42-3.78-2.59-5.92-3.83-1.42-.84-2.86-1.66-4.23-2.57-9.63-6.35-16.53-16.5-18.92-27.8-1.87-8.86-.92-18.19 2.57-26.48" class="cls-4"/><path d="M126.22 297.28c2.86 1.3 5.78 2.49 8.81 3.46 1.25.4 2.59.8 4.03 1.15 7.31 1.84 16.82 2.79 26.18-.45 6.57-2.27 14.19-7.96 14.06-16.5-.07-4.71-2.66-9.35-7.27-13.04-2.17-1.76-4.53-3.11-6.8-4.43-1.3-.75-2.61-1.5-3.86-2.34-8.11-5.35-13.91-13.88-15.92-23.37-1.69-7.97-.65-16.38 2.84-23.71m138.43-34.81 12.64 41.08c-2.32 1.69-4.71 3.36-7.19 4.98-15.2 9.96-33.13 18.47-53 24.58-19.88 6.1-39.49 9.16-57.66 9.45-2.96.05-5.87.02-8.74-.07l-13.29-43.18" class="cls-4"/><path d="M129.22 294.2c1.61-3.37.17-7.41-3.2-9.02l-14.79-7.04c-3.37-1.61-7.41-.17-9.02 3.2-1.61 3.37-.17 7.41 3.2 9.02l14.79 7.04c3.37 1.61 7.41.17 9.02-3.2Zm105.99-60.46 75.3-73.81-103.76-18.73-75.31 73.81 103.77 18.73z" class="cls-4"/><ellipse cx="221.34" cy="184.83" class="cls-4" rx="12.06" ry="5.31" transform="rotate(-17.1 221.268 184.776)"/><ellipse cx="221.34" cy="184.83" class="cls-4" rx="12.06" ry="5.31" transform="rotate(-17.1 221.268 184.776)"/><path d="M129.22 294.2c1.61-3.37.17-7.41-3.2-9.02l-14.79-7.04c-3.37-1.61-7.41-.17-9.02 3.2-1.61 3.37-.17 7.41 3.2 9.02l14.79 7.04c3.37 1.61 7.41.17 9.02-3.2Zm25.51-253.71 5.63 16.81-8.32-2.79-4.96 7.24-4.9-14.62c3.61-2.28 7.78-4.54 12.55-6.63Z" class="cls-4"/><path d="M145.89 135.19s-19.73-7.69-49.74 2.37L72.69 67.55c30-10.05 49.74-2.37 49.74-2.37h.02s5.64-9.15 19.73-18.05l4.9 14.62 4.96-7.24 8.32 2.79-5.63-16.81c2.74-1.2 5.68-2.34 8.84-3.4l23.46 70.01c-30 10.05-41.12 28.08-41.12 28.08h-.02Z" class="cls-4"/><path d="m268.38 306.79 15.83 6.54-2.87 64.52-14.47-5.98.74-11.3-20.95-8.65-7.45 8.53-14.31-5.91 43.49-47.74m1.58 18.33-15.36 17.71 13.83 5.71 1.53-23.42m51.17 12.53 12.96 5.35-5.91 14.31 13.91 5.74-5.05 12.23-13.91-5.74-5.88 14.24-12.96-5.35 5.88-14.24-13.91-5.74 5.05-12.23 13.91 5.74 5.91-14.31m-52.76-31.87c-.28 0-.55.11-.74.33l-43.49 47.74c-.22.24-.31.57-.24.89.07.32.29.58.59.71l14.31 5.91c.12.05.25.08.38.08.28 0 .56-.12.75-.34l6.98-7.99 19.63 8.1-.69 10.59c-.03.43.22.83.62.99l14.47 5.98a.972.972 0 0 0 .92-.08c.27-.18.45-.47.46-.8l2.87-64.52c.02-.42-.23-.81-.62-.97l-15.83-6.54a.995.995 0 0 0-.38-.08Zm-12.1 36.66 12.51-14.42-1.25 19.07-11.26-4.65Zm64.86-5.79a1.019 1.019 0 0 0-.92.62l-5.53 13.38-12.99-5.36c-.12-.05-.25-.08-.38-.08s-.26.03-.38.08c-.24.1-.44.3-.54.54l-5.05 12.23c-.21.51.03 1.1.54 1.31l12.99 5.36-5.5 13.31c-.1.25-.1.52 0 .77.1.24.3.44.54.54l12.96 5.35a.982.982 0 0 0 1.3-.54l5.5-13.31 12.99 5.36a.982.982 0 0 0 1.3-.54l5.05-12.23c.1-.25.1-.52 0-.77-.1-.24-.3-.44-.54-.54l-12.99-5.36 5.53-13.39c.21-.51-.03-1.1-.54-1.31l-12.96-5.35a.995.995 0 0 0-.38-.08Z" style="fill:#8ceb8b"/></g></g></svg>