<svg xmlns="http://www.w3.org/2000/svg" data-name="Layer 2" viewBox="0 0 1200 605.27"><g data-name="Layer 1"><path fill="#5156d4" d="M0 0h1200v605.27H0z"/><path fill="none" stroke="#fff" stroke-miterlimit="10" stroke-width=".45" d="M0 0h1200v605.27H0zm0 582.85h1200M0 560.43h1200M0 538.02h1200M0 515.6h1200M0 493.18h1200M0 470.76h1200M0 448.35h1200M0 425.93h1200M0 403.51h1200M0 381.09h1200M0 358.68h1200M0 336.26h1200M0 313.84h1200M0 291.43h1200M0 269.01h1200M0 246.59h1200M0 224.17h1200M0 201.76h1200M0 179.34h1200M0 156.92h1200M0 134.5h1200M0 112.09h1200M0 89.67h1200M0 67.25h1200M0 44.83h1200M0 22.42h1200M1176 0v605.27M1152 0v605.27M1128 0v605.27M1104 0v605.27M1080 0v605.27M1056 0v605.27M1032 0v605.27M1008 0v605.27M984 0v605.27M960 0v605.27M936 0v605.27M912 0v605.27M888 0v605.27M864 0v605.27M840 0v605.27M816 0v605.27M792 0v605.27M768 0v605.27M744 0v605.27M720 0v605.27M696 0v605.27M672 0v605.27M648 0v605.27M624 0v605.27M600 0v605.27M576 0v605.27M552 0v605.27M528 0v605.27M504 0v605.27M480 0v605.27M456 0v605.27M432 0v605.27M408 0v605.27M384 0v605.27M360 0v605.27M336 0v605.27M312 0v605.27M288 0v605.27M264 0v605.27M240 0v605.27M216 0v605.27M192 0v605.27M168 0v605.27M144 0v605.27M120 0v605.27M96 0v605.27M72 0v605.27M48 0v605.27M24 0v605.27" opacity=".1"/></g></svg>