<svg width="200" height="48" viewBox="0 0 200 48" fill="none" xmlns="http://www.w3.org/2000/svg">
<path d="M59.4799 40.4438V30.896H66.9537C69.8266 30.896 72.3272 30.4244 74.4554 29.4757C76.5837 28.5326 78.2174 27.1678 79.3509 25.3869C80.4845 23.6061 81.0569 21.5201 81.0569 19.1234C81.0569 16.7267 80.4901 14.6019 79.3509 12.8377C78.2174 11.0735 76.5837 9.71981 74.4554 8.77112C72.3272 7.82799 69.8266 7.35087 66.9537 7.35087H53.3229V40.4272H59.4743L59.4799 40.4438ZM66.6703 25.6976H59.4799V12.5603H66.6703C69.3543 12.5603 71.3881 13.1262 72.7773 14.2635C74.1665 15.3953 74.8611 17.0208 74.8611 19.129C74.8611 21.2371 74.1665 22.8627 72.7773 23.9944C71.3881 25.1262 69.3543 25.6976 66.6703 25.6976ZM94.7766 40.7711C96.5103 40.7711 98.0996 40.4715 99.5332 39.8724C100.967 39.2732 102.173 38.3745 103.151 37.1761V40.4383H108.78V15.2066H102.867V18.2801C101.856 17.1761 100.667 16.3439 99.2943 15.7781C97.9217 15.2122 96.4158 14.9292 94.7766 14.9292C92.3149 14.9292 90.1144 15.4674 88.1751 16.5381C86.2358 17.6088 84.7188 19.1123 83.6297 21.0485C82.5405 22.9847 81.996 25.2482 81.996 27.828C81.996 30.4077 82.5405 32.6768 83.6297 34.6352C84.7188 36.588 86.2302 38.1026 88.1751 39.1733C90.1144 40.2441 92.3149 40.7822 94.7766 40.7822V40.7711ZM95.4379 35.717C93.2596 35.717 91.4703 34.9903 90.0644 33.5423C88.6586 32.0943 87.9584 30.1858 87.9584 27.8224C87.9584 25.4591 88.6586 23.5561 90.0644 22.1026C91.4703 20.6546 93.2596 19.9279 95.4379 19.9279C97.6161 19.9279 99.411 20.6546 100.833 22.1026C102.25 23.5506 102.962 25.4591 102.962 27.8224C102.962 30.1858 102.25 32.0887 100.833 33.5423C99.4165 34.9903 97.6161 35.717 95.4379 35.717ZM115.942 40.4438V27.6837C115.942 25.226 116.576 23.3453 117.837 22.036C119.099 20.7267 120.816 20.0776 122.994 20.0776C124.917 20.0776 126.4 20.638 127.439 21.7531C128.479 22.8738 129.001 24.5326 129.001 26.7406V40.4438H134.913V25.9861C134.913 22.3301 133.952 19.5728 132.029 17.7143C130.107 15.8557 127.551 14.9237 124.361 14.9237C122.499 14.9237 120.827 15.2233 119.343 15.8224C117.86 16.4216 116.631 17.3037 115.653 18.4688V15.2066H110.024V40.4438H115.937H115.942ZM149.555 40.7711C151.289 40.7711 152.878 40.4715 154.312 39.8724C155.746 39.2732 156.952 38.3745 157.93 37.1761V40.4383H163.609V7.22882H157.696V18.3245C156.718 17.1928 155.535 16.3384 154.145 15.7725C152.756 15.2066 151.228 14.9237 149.555 14.9237C147.127 14.9237 144.943 15.4618 143.004 16.5326C141.065 17.6033 139.542 19.1179 138.436 21.0707C137.33 23.0236 136.78 25.276 136.78 27.828C136.78 30.38 137.33 32.638 138.436 34.6075C139.542 36.577 141.065 38.0971 143.004 39.1678C144.943 40.2385 147.127 40.7767 149.555 40.7767V40.7711ZM150.267 35.717C148.85 35.717 147.572 35.3953 146.433 34.7462C145.299 34.1026 144.399 33.1761 143.737 31.9833C143.076 30.785 142.743 29.398 142.743 27.8224C142.743 26.2469 143.076 24.8599 143.737 23.6616C144.399 22.4632 145.299 21.5423 146.433 20.8987C147.566 20.2552 148.844 19.9279 150.267 19.9279C151.689 19.9279 152.962 20.2496 154.101 20.8987C155.234 21.5423 156.135 22.4688 156.796 23.6616C157.457 24.8599 157.791 26.2469 157.791 27.8224C157.791 29.398 157.457 30.785 156.796 31.9833C156.135 33.1817 155.234 34.1026 154.101 34.7462C152.967 35.3897 151.689 35.717 150.267 35.717ZM178.251 40.7711C179.984 40.7711 181.574 40.4715 183.007 39.8724C184.441 39.2732 185.647 38.3745 186.625 37.1761V40.4383H192.254V15.2066H186.341V18.2801C185.33 17.1761 184.141 16.3439 182.768 15.7781C181.396 15.2122 179.89 14.9292 178.251 14.9292C175.789 14.9292 173.589 15.4674 171.649 16.5381C169.71 17.6088 168.193 19.1123 167.104 21.0485C166.015 22.9847 165.47 25.2482 165.47 27.828C165.47 30.4077 166.015 32.6768 167.104 34.6352C168.193 36.588 169.704 38.1026 171.649 39.1733C173.589 40.2441 175.789 40.7822 178.251 40.7822V40.7711ZM178.912 35.717C176.734 35.717 174.944 34.9903 173.539 33.5423C172.133 32.0943 171.433 30.1858 171.433 27.8224C171.433 25.4591 172.133 23.5561 173.539 22.1026C174.944 20.6546 176.734 19.9279 178.912 19.9279C181.09 19.9279 182.885 20.6546 184.308 22.1026C185.725 23.5506 186.436 25.4591 186.436 27.8224C186.436 30.1858 185.725 32.0887 184.308 33.5423C182.891 34.9903 181.09 35.717 178.912 35.717ZM196.994 13.1706C197.844 13.1706 198.539 12.8821 199.083 12.2996C199.628 11.717 199.9 11.0014 199.9 10.1525C199.9 9.35365 199.622 8.68791 199.066 8.16086C198.511 7.63381 197.822 7.36752 196.994 7.36752C196.166 7.36752 195.482 7.64491 194.921 8.19969C194.365 8.75448 194.088 9.44241 194.088 10.269C194.088 11.0957 194.365 11.7836 194.921 12.3384C195.477 12.8932 196.166 13.1706 196.994 13.1706ZM200 40.5603V15.3287H194.088V40.5603H200Z" fill="white"/>
<path d="M5.82352 48L5.54568 47.4896C2.02267 40.5215 0.15559 32.5881 0 23.9168V23.8502C0.255612 15.2178 2.18938 7.3509 5.74016 0.466019L5.97911 0L6.51256 0.0166436C15.3645 0.665742 23.0718 4.17198 28.8064 7.15673L28.8564 7.18447C35.6801 11.3786 41.537 17.0264 45.7991 23.5118L45.8157 23.5395L46.0991 23.9723L45.8157 24.405C41.5203 30.957 35.669 36.5825 28.9009 40.6713L28.7508 40.7545C21.8771 44.8599 14.3254 47.2843 6.33474 47.9501L5.82352 47.9945V48ZM6.92376 1.64216C3.63414 8.18863 1.83374 15.6838 1.58924 23.8946C1.73928 32.1276 3.46744 39.6727 6.74039 46.3245C14.2921 45.62 21.427 43.2843 27.9562 39.3897L28.1007 39.3065C34.491 35.4452 40.0533 30.1526 44.1987 23.9778C40.0922 17.8641 34.5188 12.5381 28.0507 8.55478C22.2327 5.52566 15.1978 2.35784 6.92376 1.64216ZM45.1211 23.9612L45.1323 23.9556H45.1211V23.9612Z" fill="white"/>
<path d="M45.1545 23.1844H0.794617V24.7767H45.1545V23.1844Z" fill="white"/>
<path d="M7.15043 0.413252L5.76459 1.20117L28.0351 40.2461L29.421 39.4582L7.15043 0.413252Z" fill="white"/>
<path d="M27.9316 7.61151L5.57861 46.7692L6.95935 47.5548L29.3123 8.39717L27.9316 7.61151Z" fill="white"/>
<path d="M19.2154 43.4174C8.61858 43.4174 0 34.7018 0 23.9889C0 13.276 8.61858 4.5603 19.2154 4.5603C29.8122 4.5603 38.4308 13.276 38.4308 23.9889C38.4308 34.7018 29.8122 43.4174 19.2154 43.4174ZM19.2154 6.14699C9.49656 6.14699 1.5948 14.1525 1.5948 23.9889C1.5948 33.8252 9.50211 41.8308 19.2154 41.8308C28.9286 41.8308 36.836 33.8252 36.836 23.9889C36.836 14.1525 28.9286 6.14699 19.2154 6.14699Z" fill="white"/>
</svg>
