<svg width="200" height="48" viewBox="0 0 200 48" fill="none" xmlns="http://www.w3.org/2000/svg">
<g clip-path="url(#clip0_1898_6911)">
<path d="M38.4252 23.9778H46.1047L45.8213 24.4161C41.926 30.3523 36.7582 35.5229 30.7957 39.4785C35.4301 35.9279 38.4252 30.3079 38.4252 23.9889V23.9778Z" fill="#95E3E6"/>
<path d="M45.8213 23.5451L46.0991 23.9778H38.4252C38.4252 17.2094 34.9744 11.2399 29.7677 7.76697C36.2025 11.889 41.7315 17.3204 45.7991 23.5173L45.8213 23.5451Z" fill="#B4F3BF"/>
<path d="M26.8504 6.16366C24.511 5.13176 21.9271 4.56033 19.2154 4.56033C15.8646 4.56033 12.7139 5.43135 9.96888 6.96255L6.00134 0L6.51812 0.0166436C14.3976 0.59362 21.3714 3.43967 26.8504 6.16366Z" fill="#CAFBDC"/>
<path d="M6.00133 0L9.96888 6.96255C4.43987 10.0416 0.56679 15.7947 0.0555649 22.4854C0.466767 14.3856 2.3783 6.98474 5.74016 0.466019L5.98466 0H6.00133Z" fill="#86D9AC"/>
<path d="M29.1287 40.5437C29.0565 40.5936 28.9787 40.638 28.9064 40.6824L28.7564 40.7656C28.2285 41.0818 27.695 41.3869 27.1616 41.6754C27.1449 41.6754 27.1283 41.6921 27.1116 41.6976C24.6999 42.8016 22.0271 43.4175 19.2154 43.4175C15.8091 43.4175 12.6084 42.5187 9.82996 40.9376L19.5932 23.9778L29.1287 40.5437Z" fill="#76D59F"/>
<path d="M38.4252 23.9778V23.9889C38.4252 30.3079 35.4301 35.9279 30.7957 39.4785C30.2456 39.8502 29.6899 40.1997 29.1287 40.5437L19.5932 23.9778H38.4252Z" fill="#7CD988"/>
<path d="M38.4252 23.9778H19.5932L29.0231 7.29541C29.2732 7.4452 29.5177 7.60054 29.7622 7.76698C34.9689 11.2399 38.4141 17.2094 38.4196 23.9778H38.4252Z" fill="#A5E695"/>
<path d="M28.8675 7.19553C28.9231 7.22882 28.9731 7.26211 29.0231 7.29539L19.5932 23.9778L9.96888 6.96252C12.7139 5.43132 15.8646 4.5603 19.2154 4.5603C21.9271 4.5603 24.511 5.13173 26.8504 6.16363C27.5061 6.49095 28.1396 6.81273 28.7508 7.12896C28.7731 7.14005 28.7953 7.15115 28.812 7.16224C28.8342 7.17334 28.8509 7.18444 28.8675 7.19553Z" fill="#99EBB2"/>
<path d="M19.5932 23.9778H0V23.8003C0.0166704 23.362 0.0333407 22.9292 0.0555679 22.4965V22.4854C0.566793 15.7947 4.43988 10.0416 9.96888 6.96252L19.5932 23.9778Z" fill="#66D59D"/>
<path d="M19.5932 23.9778L9.82996 40.9376C4.2954 37.7919 0.4501 31.9556 0.0388975 25.1983C0.0222272 24.7989 0.0111136 24.3939 0 23.9889V23.9778H19.5932Z" fill="#4FBE88"/>
<path d="M9.83023 40.9376L5.80156 47.9889L5.56262 47.5285C2.20076 40.871 0.344793 33.3703 0.0391693 25.1984C0.450372 31.9556 4.29567 37.792 9.83023 40.9376Z" fill="#82D9DE"/>
<path d="M5.80129 47.9889L9.82997 40.9376C12.6084 42.5188 15.8091 43.4175 19.2154 43.4175C22.0271 43.4175 24.6999 42.8017 27.1116 41.6977C20.6824 45.2428 13.6975 47.3454 6.33474 47.9557L5.80685 48V47.9889H5.80129Z" fill="#9DE6F1"/>
<path d="M59.4799 40.4438V30.896H66.9538C69.8266 30.896 72.3272 30.4244 74.4554 29.4757C76.5837 28.5326 78.2174 27.1678 79.351 25.3869C80.4845 23.6061 81.0569 21.5201 81.0569 19.1234C81.0569 16.7267 80.4901 14.6019 79.351 12.8377C78.2174 11.0735 76.5837 9.71981 74.4554 8.77113C72.3272 7.828 69.8266 7.35088 66.9538 7.35088H53.323V40.4272H59.4743L59.4799 40.4438ZM66.6704 25.7032H59.4799V12.5659H66.6704C69.3543 12.5659 71.3881 13.1317 72.7773 14.269C74.1665 15.4008 74.8611 17.0263 74.8611 19.1345C74.8611 21.2427 74.1665 22.8682 72.7773 24C71.3881 25.1317 69.3543 25.7032 66.6704 25.7032ZM94.7766 40.7767C96.5103 40.7767 98.0996 40.4771 99.5332 39.8779C100.967 39.2788 102.173 38.38 103.151 37.1817V40.4438H108.78V15.2122H102.867V18.2857C101.856 17.1817 100.667 16.3495 99.2943 15.7836C97.9218 15.2177 96.4159 14.9348 94.7766 14.9348C92.3149 14.9348 90.1145 15.4729 88.1751 16.5437C86.2358 17.6144 84.7188 19.1179 83.6297 21.0541C82.5406 22.9903 81.996 25.2538 81.996 27.8335C81.996 30.4133 82.5406 32.6824 83.6297 34.6408C84.7188 36.5936 86.2303 38.1082 88.1751 39.1789C90.1145 40.2496 92.3149 40.7878 94.7766 40.7878V40.7767ZM95.4379 35.7226C93.2596 35.7226 91.4703 34.9958 90.0644 33.5478C88.6586 32.0998 87.9584 30.1914 87.9584 27.828C87.9584 25.4646 88.6586 23.5617 90.0644 22.1082C91.4703 20.6546 93.2596 19.9334 95.4379 19.9334C97.6161 19.9334 99.411 20.6602 100.834 22.1082C102.25 23.5561 102.962 25.4646 102.962 27.828C102.962 30.1914 102.25 32.0943 100.834 33.5478C99.4165 34.9958 97.6161 35.7226 95.4379 35.7226ZM115.937 40.4438V27.6838C115.937 25.2261 116.57 23.3453 117.832 22.036C119.093 20.7267 120.81 20.0776 122.988 20.0776C124.911 20.0776 126.395 20.638 127.434 21.7531C128.473 22.8738 128.995 24.5326 128.995 26.7406V40.4438H134.908V25.9861C134.908 22.3301 133.946 19.5728 132.024 17.7143C130.101 15.8557 127.545 14.9237 124.355 14.9237C122.494 14.9237 120.821 15.2233 119.338 15.8224C117.854 16.4216 116.626 17.3037 115.648 18.4688V15.2066H110.019V40.4438H115.931H115.937ZM149.555 40.7767C151.289 40.7767 152.878 40.4771 154.312 39.8779C155.746 39.2788 156.952 38.38 157.93 37.1817V40.4438H163.609V7.23438H157.696V18.3301C156.718 17.1983 155.535 16.3439 154.145 15.7781C152.756 15.2122 151.228 14.9292 149.555 14.9292C147.127 14.9292 144.943 15.4674 143.004 16.5381C141.065 17.6089 139.542 19.1234 138.436 21.0763C137.331 23.0291 136.78 25.2815 136.78 27.8335C136.78 30.3856 137.331 32.6435 138.436 34.613C139.542 36.5825 141.065 38.1026 143.004 39.1733C144.943 40.2441 147.127 40.7822 149.555 40.7822V40.7767ZM150.261 35.7226C148.844 35.7226 147.566 35.4008 146.427 34.7517C145.293 34.1082 144.393 33.1817 143.732 31.9889C143.071 30.7905 142.737 29.4036 142.737 27.828C142.737 26.2524 143.071 24.8654 143.732 23.6671C144.393 22.4688 145.293 21.5478 146.427 20.9043C147.561 20.2607 148.839 19.9334 150.261 19.9334C151.684 19.9334 152.956 20.2552 154.095 20.9043C155.229 21.5478 156.129 22.4743 156.79 23.6671C157.452 24.8654 157.785 26.2524 157.785 27.828C157.785 29.4036 157.452 30.7905 156.79 31.9889C156.129 33.1872 155.229 34.1082 154.095 34.7517C152.962 35.3953 151.684 35.7226 150.261 35.7226ZM178.245 40.7767C179.979 40.7767 181.568 40.4771 183.002 39.8779C184.435 39.2788 185.641 38.38 186.619 37.1817V40.4438H192.248V15.2122H186.336V18.2857C185.325 17.1817 184.135 16.3495 182.763 15.7836C181.39 15.2177 179.884 14.9348 178.245 14.9348C175.783 14.9348 173.583 15.4729 171.644 16.5437C169.704 17.6144 168.187 19.1179 167.098 21.0541C166.009 22.9903 165.465 25.2538 165.465 27.8335C165.465 30.4133 166.009 32.6824 167.098 34.6408C168.187 36.5936 169.699 38.1082 171.644 39.1789C173.583 40.2496 175.783 40.7878 178.245 40.7878V40.7767ZM178.906 35.7226C176.728 35.7226 174.939 34.9958 173.533 33.5478C172.127 32.0998 171.427 30.1914 171.427 27.828C171.427 25.4646 172.127 23.5617 173.533 22.1082C174.939 20.6602 176.728 19.9334 178.906 19.9334C181.085 19.9334 182.88 20.6602 184.302 22.1082C185.719 23.5561 186.43 25.4646 186.43 27.828C186.43 30.1914 185.719 32.0943 184.302 33.5478C182.885 34.9958 181.085 35.7226 178.906 35.7226ZM196.988 13.1706C197.838 13.1706 198.533 12.8821 199.078 12.2996C199.622 11.717 199.894 11.0014 199.894 10.1525C199.894 9.35365 199.617 8.68791 199.061 8.16087C198.505 7.63382 197.816 7.36752 196.988 7.36752C196.16 7.36752 195.477 7.64492 194.916 8.1997C194.36 8.75449 194.082 9.44242 194.082 10.269C194.082 11.0957 194.36 11.7836 194.916 12.3384C195.471 12.8932 196.16 13.1706 196.988 13.1706ZM200 40.5659V15.3342H194.088V40.5659H200Z" fill="#444A56"/>
</g>
<defs>
<clipPath id="clip0_1898_6911">
<rect width="200" height="48" fill="white"/>
</clipPath>
</defs>
</svg>
