<svg width="48" height="48" viewBox="0 0 46.1047 48" fill="none" xmlns="http://www.w3.org/2000/svg">
  <path d="M38.4252 23.9778H46.1047L45.8213 24.4161C41.926 30.3523 36.7582 35.5229 30.7957 39.4785C35.4301 35.9279 38.4252 30.3079 38.4252 23.9889V23.9778Z" fill="#95E3E6"/>
  <path d="M45.8213 23.5451L46.0991 23.9778H38.4252C38.4252 17.2094 34.9744 11.2399 29.7677 7.76697C36.2025 11.889 41.7315 17.3204 45.7991 23.5173L45.8213 23.5451Z" fill="#B4F3BF"/>
  <path d="M26.8504 6.16366C24.511 5.13176 21.9271 4.56033 19.2154 4.56033C15.8646 4.56033 12.7139 5.43135 9.96888 6.96255L6.00134 0L6.51812 0.0166436C14.3976 0.59362 21.3714 3.43967 26.8504 6.16366Z" fill="#CAFBDC"/>
  <path d="M6.00133 0L9.96888 6.96255C4.43987 10.0416 0.56679 15.7947 0.0555649 22.4854C0.466767 14.3856 2.3783 6.98474 5.74016 0.466019L5.98466 0H6.00133Z" fill="#86D9AC"/>
  <path d="M29.1287 40.5437C29.0565 40.5936 28.9787 40.638 28.9064 40.6824L28.7564 40.7656C28.2285 41.0818 27.695 41.3869 27.1616 41.6754C27.1449 41.6754 27.1283 41.6921 27.1116 41.6976C24.6999 42.8016 22.0271 43.4175 19.2154 43.4175C15.8091 43.4175 12.6084 42.5187 9.82996 40.9376L19.5932 23.9778L29.1287 40.5437Z" fill="#76D59F"/>
  <path d="M38.4252 23.9778V23.9889C38.4252 30.3079 35.4301 35.9279 30.7957 39.4785C30.2456 39.8502 29.6899 40.1997 29.1287 40.5437L19.5932 23.9778H38.4252Z" fill="#7CD988"/>
  <path d="M38.4252 23.9778H19.5932L29.0231 7.29541C29.2732 7.4452 29.5177 7.60054 29.7622 7.76698C34.9689 11.2399 38.4141 17.2094 38.4196 23.9778H38.4252Z" fill="#A5E695"/>
  <path d="M28.8675 7.19553C28.9231 7.22882 28.9731 7.26211 29.0231 7.29539L19.5932 23.9778L9.96888 6.96252C12.7139 5.43132 15.8646 4.5603 19.2154 4.5603C21.9271 4.5603 24.511 5.13173 26.8504 6.16363C27.5061 6.49095 28.1396 6.81273 28.7508 7.12896C28.7731 7.14005 28.7953 7.15115 28.812 7.16224C28.8342 7.17334 28.8509 7.18444 28.8675 7.19553Z" fill="#99EBB2"/>
  <path d="M19.5932 23.9778H0V23.8003C0.0166704 23.362 0.0333407 22.9292 0.0555679 22.4965V22.4854C0.566793 15.7947 4.43988 10.0416 9.96888 6.96252L19.5932 23.9778Z" fill="#66D59D"/>
  <path d="M19.5932 23.9778L9.82996 40.9376C4.2954 37.7919 0.4501 31.9556 0.0388975 25.1983C0.0222272 24.7989 0.0111136 24.3939 0 23.9889V23.9778H19.5932Z" fill="#4FBE88"/>
  <path d="M9.83023 40.9376L5.80156 47.9889L5.56262 47.5285C2.20076 40.871 0.344793 33.3703 0.0391693 25.1984C0.450372 31.9556 4.29567 37.792 9.83023 40.9376Z" fill="#82D9DE"/>
  <path d="M5.80129 47.9889L9.82997 40.9376C12.6084 42.5188 15.8091 43.4175 19.2154 43.4175C22.0271 43.4175 24.6999 42.8017 27.1116 41.6977C20.6824 45.2428 13.6975 47.3454 6.33474 47.9557L5.80685 48V47.9889H5.80129Z" fill="#9DE6F1"/>
</svg>
